<svg width="56" height="56" viewBox="0 0 56 56" fill="none" xmlns="http://www.w3.org/2000/svg">
<path fill-rule="evenodd" clip-rule="evenodd" d="M24.7599 46C15.3498 45.0456 8 36.9243 8 27.0469C8 16.5276 16.3361 8 26.6192 8C35.8855 8 43.5708 14.9246 45 23.9913C44.4829 23.8352 43.9552 23.7043 43.4183 23.6C42.5682 19.2402 40.1368 15.4638 36.7616 12.9232C35.9379 13.6002 35.1251 14.897 34.478 16.9607C33.8444 18.9812 33.402 21.6388 33.245 24.9197C32.7217 25.1731 32.2135 25.4537 31.722 25.7597C31.84 21.9691 32.3171 18.8661 33.0604 16.4955C33.6666 14.5623 34.4773 13.0328 35.4818 12.0475C33.0949 10.5684 30.3266 9.66875 27.3633 9.53918V26.583H30.5215C29.9021 27.049 29.3157 27.5581 28.7663 28.106H27.3633V29.6929C26.8102 30.4038 26.3117 31.1613 25.8746 31.9587V28.106H21.5434C21.5152 31.9747 21.133 35.189 20.485 37.7089C19.9747 39.6939 19.2867 41.2978 18.4377 42.4468C20.218 43.4387 22.1893 44.1169 24.2809 44.4089C24.4155 44.9502 24.5757 45.481 24.7599 46ZM25.8746 26.583V9.5392C22.9115 9.66883 20.1433 10.5685 17.7564 12.0475C18.8184 13.0887 19.6674 14.7405 20.2882 16.8585C21.0194 19.3535 21.4687 22.6106 21.5362 26.583H25.8746ZM20.0472 26.583C19.9798 22.7178 19.542 19.6155 18.8621 17.2959C18.2043 15.0515 17.3501 13.6405 16.477 12.9229C12.3523 16.0276 9.63701 20.9778 9.49463 26.583H20.0472ZM9.51951 28.106H20.0546C20.0264 31.8807 19.6528 34.9588 19.0453 37.3215C18.5342 39.3093 17.8715 40.7365 17.1539 41.6551C12.8034 38.6993 9.84923 33.7642 9.51951 28.106Z" fill="#90BECB"/>
<path fill-rule="evenodd" clip-rule="evenodd" d="M27.0001 46C27.0001 46 27.581 45.9737 28.533 45.838C31.245 45.4513 36.9683 44.1762 40.8517 40.0883C44.7351 36.0004 45.6902 30.2456 45.9243 27.5311C46.0065 26.5782 45.9999 26 45.9999 26C45.9999 26 45.419 26.0263 44.467 26.162C41.755 26.5487 36.0317 27.8238 32.1483 31.9117C28.2649 35.9996 27.3098 41.7544 27.0757 44.4689C26.9935 45.4218 27.0001 46 27.0001 46ZM39.7383 39.0422C37.38 41.5247 34.2126 42.9001 31.5425 43.6492C31.0224 43.7951 30.5261 43.9159 30.0645 44.0158L44.2093 28.9795C44.1312 29.4921 44.0297 30.0518 43.8978 30.6434C43.2974 33.337 42.0966 36.5598 39.7383 39.0422ZM43.0763 27.9542L28.7694 43.1628C28.8501 42.6121 28.958 42.0033 29.1022 41.3566C29.7026 38.663 30.9034 35.4402 33.2617 32.9578C35.62 30.4753 38.7874 29.0999 41.4575 28.3508C42.0309 28.1899 42.5754 28.0596 43.0763 27.9542Z" fill="#ACB488"/>
</svg>
