<svg width="56" height="56" viewBox="0 0 56 56" fill="none" xmlns="http://www.w3.org/2000/svg">
<path fill-rule="evenodd" clip-rule="evenodd" d="M32.5247 27.2378C35.1154 22.4292 34.2339 16.5063 30.3529 12.645C25.4682 7.78502 17.5318 7.78501 12.6471 12.645C8.76606 16.5063 7.88458 22.4292 10.4753 27.2378L14.7893 35.2453C16.0552 37.5949 18.4708 39.1003 21.1362 39.2264L19.654 41.6763H23.3464L21.8642 39.2264C24.5294 39.1001 26.9449 37.5948 28.2107 35.2453L32.5247 27.2378ZM26.8546 34.5268L31.1687 26.5193C33.4407 22.3021 32.6676 17.1078 29.264 13.7214C24.9801 9.45923 18.0199 9.45923 13.736 13.7214C10.3324 17.1078 9.55932 22.3021 11.8313 26.5193L16.1454 34.5268C17.2012 36.4865 19.2596 37.7102 21.5 37.7102C23.7404 37.7102 25.7988 36.4865 26.8546 34.5268Z" fill="#90BECB"/>
<path d="M20.7315 44.1175V49H22.269V44.1175H20.7315Z" fill="#90BECB"/>
<path d="M33.0706 11.2247C36.7626 11.0447 40.4234 12.8751 42.3939 16.2747L43.2073 17.6781C45.794 22.141 45.1388 27.7573 41.5929 31.5156L35.5644 37.9054C33.7262 39.8537 30.9197 40.5734 28.3605 39.7529L28.151 40.3963L25.9578 42.5008L29.4979 43.4421L28.8312 41.1291C31.5986 41.7015 34.4958 40.8119 36.4562 38.734L42.4847 32.3443C46.3978 28.1967 47.1209 21.9987 44.2663 17.0736L43.4529 15.6702C41.2566 11.881 37.1854 9.83216 33.0706 10.0108V11.2247Z" fill="#ACB488"/>
<path d="M26.2217 43.7832L25 48.6327L26.4805 49L27.7022 44.1505L26.2217 43.7832Z" fill="#ACB488"/>
</svg>
