<svg width="24" height="24" viewBox="0 0 24 24" fill="none" xmlns="http://www.w3.org/2000/svg">
<g clip-path="url(#clip0_285_3176)">
<path d="M12 11C13.1046 11 14 10.1046 14 9C14 7.89543 13.1046 7 12 7C10.8954 7 10 7.89543 10 9C10 10.1046 10.8954 11 12 11Z" fill="white"/>
<path fill-rule="evenodd" clip-rule="evenodd" d="M12 1.25C9.95197 1.25 7.9833 2.03845 6.52823 3.44898C5.07237 4.86028 4.25 6.77946 4.25 8.78571C4.25 10.295 4.73371 11.8505 5.41469 13.3028C6.09862 14.7614 7.00338 16.1618 7.89621 17.3735C8.79051 18.5872 9.68312 19.6253 10.3516 20.3598C10.6862 20.7274 10.9657 21.02 11.1624 21.2216C11.2608 21.3225 11.3386 21.4006 11.3923 21.4541C11.4192 21.4808 11.44 21.5014 11.4545 21.5155L11.4712 21.5319L11.4777 21.5382C11.7686 21.8202 12.2311 21.8205 12.522 21.5385L12 21C12.522 21.5385 12.5228 21.5378 12.5228 21.5378L12.5288 21.5319L12.5455 21.5155C12.56 21.5014 12.5808 21.4808 12.6077 21.4541C12.6614 21.4006 12.7392 21.3225 12.8376 21.2216C13.0343 21.02 13.3138 20.7274 13.6484 20.3598C14.3169 19.6253 15.2095 18.5872 16.1038 17.3735C16.9966 16.1618 17.9014 14.7614 18.5853 13.3028C19.2663 11.8505 19.75 10.295 19.75 8.78571C19.75 6.77946 18.9276 4.86028 17.4718 3.44898C16.0167 2.03845 14.048 1.25 12 1.25ZM12 21L11.4777 21.5382C11.4777 21.5382 11.478 21.5385 12 21ZM12.5391 19.3501C12.3353 19.5739 12.1533 19.7683 12 19.9292C11.8467 19.7683 11.6647 19.5739 11.4609 19.3501C10.8169 18.6425 9.95949 17.645 9.10379 16.4837C8.24662 15.3204 7.40138 14.0065 6.77281 12.666C6.14129 11.3192 5.75 9.99067 5.75 8.78571C5.75 7.1926 6.40263 5.65984 7.57228 4.526C8.74271 3.39139 10.335 2.75 12 2.75C13.665 2.75 15.2573 3.39139 16.4277 4.526C17.5974 5.65984 18.25 7.1926 18.25 8.78571C18.25 9.99067 17.8587 11.3192 17.2272 12.666C16.5986 14.0065 15.7534 15.3204 14.8962 16.4837C14.0405 17.645 13.1831 18.6425 12.5391 19.3501Z" fill="white"/>
</g>
<defs>
<clipPath id="clip0_285_3176">
<rect width="24" height="24" fill="white"/>
</clipPath>
</defs>
</svg>
