<svg width="24" height="24" viewBox="0 0 24 24" fill="none" xmlns="http://www.w3.org/2000/svg">
<path fill-rule="evenodd" clip-rule="evenodd" d="M11.5052 6.4908L10.317 3.59088C9.92226 2.62766 8.99514 2 7.96708 2H5.55514C3.77088 2 2.14011 3.4267 2.30366 5.37775C3.03072 14.0514 10.1436 21.2497 18.6711 21.9884C20.5941 22.155 22 20.5001 22 18.6897C22 18.2897 21.9971 17.8903 21.9942 17.4939L21.994 17.4643L21.994 17.4627L21.9939 17.4515C21.9909 17.0493 21.9879 16.6498 21.9879 16.2506C21.9879 15.2088 21.371 14.2691 20.4236 13.8676L17.577 12.6616C16.701 12.2905 15.694 12.445 14.9653 13.0625L13.1121 14.6328L12.9178 14.477C11.7149 13.5122 10.6587 12.3468 9.81966 11.0535L9.69544 10.862L11.1121 9.13339C11.7171 8.39519 11.8685 7.37733 11.5052 6.4908ZM3.72072 5.25543C4.38898 13.2277 10.9535 19.8715 18.792 20.5506C19.7323 20.632 20.5778 19.8181 20.5778 18.6897C20.5778 18.2867 20.5749 17.8835 20.5718 17.4769L20.5718 17.4757L20.5718 17.4733C20.5688 17.0681 20.5657 16.6599 20.5657 16.2506C20.5657 15.791 20.2935 15.3765 19.8757 15.1993L17.029 13.9933C16.6426 13.8296 16.1984 13.8977 15.8768 14.1702L13.1794 16.4558L12.7332 16.1371C10.9049 14.8316 9.33807 13.113 8.21124 11.1604L7.95919 10.7235L10.0186 8.21068C10.2855 7.88501 10.3523 7.43597 10.1921 7.04487L9.00375 4.14493C8.82962 3.71999 8.42062 3.4431 7.96708 3.4431H5.55514C4.44318 3.4431 3.64071 4.30106 3.72072 5.25543Z" fill="white"/>
</svg>
