<svg width="56" height="56" viewBox="0 0 56 56" fill="none" xmlns="http://www.w3.org/2000/svg">
<path fill-rule="evenodd" clip-rule="evenodd" d="M38.7333 6.91667H17.2667C11.5505 6.91667 6.91667 11.5505 6.91667 17.2667V38.7333C6.91667 44.4495 11.5505 49.0833 17.2667 49.0833H38.7333C44.4495 49.0833 49.0833 44.4495 49.0833 38.7333V17.2667C49.0833 11.5505 44.4495 6.91667 38.7333 6.91667ZM17.2667 5C10.492 5 5 10.492 5 17.2667V38.7333C5 45.508 10.492 51 17.2667 51H38.7333C45.508 51 51 45.508 51 38.7333V17.2667C51 10.492 45.508 5 38.7333 5H17.2667Z" fill="#F9CA86"/>
<path d="M34.8499 27.3525V28.3244H41V27.0921H37.2304L39.2997 25.3565C39.8785 24.8705 40.2523 24.4655 40.4212 24.1415C40.6021 23.8175 40.6925 23.482 40.6925 23.1348C40.6925 22.5216 40.4272 22.0125 39.8966 21.6075C39.366 21.2025 38.6123 21 37.6355 21C36.8999 21 36.2668 21.1157 35.7362 21.3471C35.2056 21.5785 34.7896 21.891 34.4881 22.2844L35.6277 23.0654C35.8206 22.8109 36.0799 22.6199 36.4055 22.4927C36.7311 22.3654 37.0989 22.3017 37.5089 22.3017C38.0515 22.3017 38.4435 22.3943 38.6847 22.5794C38.9379 22.753 39.0645 22.9729 39.0645 23.239C39.0645 23.4241 38.9982 23.6208 38.8655 23.8291C38.7449 24.0258 38.4857 24.2977 38.0877 24.6449L34.8499 27.3525Z" fill="#ABCED8"/>
<path d="M21 24.7316V34H23.0621V27.8315L26.2638 33.028H27.2406L30.4966 27.8575V34H32.5406L32.5225 24.7316H30.4061L26.8001 30.5341L23.3696 24.7316H21Z" fill="#ABCED8"/>
</svg>
