<svg width="24" height="24" viewBox="0 0 24 24" fill="none" xmlns="http://www.w3.org/2000/svg">
<path d="M3.16486 11.4035C3.16486 11.4035 11.5681 7.67172 14.4825 6.35766C15.5997 5.83208 19.3884 4.15007 19.3884 4.15007C19.3884 4.15007 21.1371 3.41425 20.9914 5.2013C20.9428 5.93719 20.5542 8.51265 20.1656 11.2984C19.5827 15.2405 18.9513 19.5505 18.9513 19.5505C18.9513 19.5505 18.8541 20.7595 18.0284 20.9697C17.2026 21.18 15.8425 20.2339 15.5997 20.0236C15.4054 19.866 11.9567 17.5007 10.6938 16.3443C10.3537 16.029 9.96517 15.3983 10.7423 14.6624C12.491 12.9278 14.5796 10.7728 15.8425 9.40625C16.4254 8.77548 17.0083 7.30378 14.5796 9.09083C11.1309 11.6664 7.73078 14.0842 7.73078 14.0842C7.73078 14.0842 6.95358 14.6098 5.49639 14.1367C4.03913 13.6637 2.33905 13.033 2.33905 13.033C2.33905 13.033 1.17336 12.2445 3.16486 11.4035Z" fill="white"/>
</svg>
