<svg width="24" height="24" viewBox="0 0 24 24" fill="none" xmlns="http://www.w3.org/2000/svg">
<path d="M7.20124 7.79766C7.19037 7.46602 7.37523 7.22523 7.59894 7.00868C7.89398 6.73317 8.21904 6.48993 8.56832 6.2833C8.7276 6.18755 8.91697 6.15107 9.10164 6.18056C9.2863 6.21005 9.45384 6.30354 9.57344 6.44383C9.99604 6.87686 10.3743 7.34905 10.7028 7.85369C10.8655 8.0807 10.9884 8.33248 11.0664 8.59876C11.0975 8.70267 11.0995 8.81282 11.0722 8.91776C11.0449 9.02269 10.9892 9.11857 10.911 9.19542C10.7318 9.36691 10.5408 9.52628 10.3393 9.67244C10.2378 9.7513 10.1623 9.85752 10.1223 9.97788C10.0822 10.0982 10.0794 10.2274 10.1141 10.3494C10.2385 10.9219 10.5204 11.4506 10.9296 11.8789C11.4269 12.4706 12.0676 12.9323 12.7938 13.2221C12.9723 13.3115 13.1768 13.3388 13.3733 13.2993C13.4809 13.2707 13.5766 13.2098 13.6467 13.1252C13.6786 13.0857 13.7113 13.0466 13.744 13.0074C13.8229 12.913 13.9023 12.818 13.9714 12.7163C14.0983 12.5368 14.2922 12.4128 14.5116 12.3707C14.7309 12.3285 14.9586 12.3716 15.1458 12.4907C15.6724 12.7885 16.1696 13.1332 16.631 13.5204C16.6799 13.5613 16.7298 13.6016 16.7797 13.6419C16.8408 13.6912 16.9021 13.7407 16.9619 13.7915C17.0906 13.8872 17.1835 14.0213 17.2264 14.1734C17.2694 14.3255 17.2599 14.4871 17.1996 14.6335C17.1036 14.8796 16.9637 15.1072 16.7863 15.3059C16.566 15.6045 16.2852 15.8559 15.9614 16.0449C15.8067 16.1335 15.6327 16.1855 15.4536 16.1968C15.2745 16.2081 15.0951 16.1784 14.9299 16.11C13.673 15.6167 12.4986 14.9435 11.4454 14.1125C10.4153 13.2859 9.51504 12.3165 8.77338 11.2353C8.14933 10.3402 7.65285 9.36664 7.29756 8.34132C7.25973 8.21731 7.22861 8.09144 7.20435 7.96424C7.19744 7.90897 7.1964 7.85315 7.20124 7.79766Z" fill="white"/>
<path d="M15.4231 7.25466C14.6281 6.58328 13.6167 6.20515 12.5651 6.1862L12.5231 6.18596C12.4668 6.18547 12.4098 6.18498 12.3538 6.19226C12.3409 6.19185 12.3279 6.19397 12.3158 6.19849C12.3037 6.20301 12.2926 6.20984 12.2832 6.21858C12.2738 6.22731 12.2663 6.23779 12.2611 6.24939C12.2559 6.26099 12.2531 6.27349 12.2529 6.28615C12.2462 6.31283 12.2504 6.34101 12.2646 6.36474C12.2788 6.38847 12.3019 6.4059 12.329 6.41335C12.3609 6.42194 12.3938 6.42602 12.4269 6.42547C12.7663 6.42733 13.1044 6.46593 13.4351 6.54056C14.0605 6.67407 14.6459 6.94644 15.1457 7.33648C15.6455 7.72653 16.0463 8.22372 16.3168 8.78938C16.6381 9.47779 16.7973 10.2275 16.7829 10.9837C16.7829 11.0639 16.8077 11.1442 16.9041 11.1351C17.0004 11.126 17.0237 11.0624 17.0237 10.9746C17.0193 10.6008 16.983 10.228 16.9149 9.86003C16.7459 8.84808 16.218 7.92604 15.4231 7.25466Z" fill="white"/>
<path d="M15.5637 10.2931C15.5585 9.87239 15.4522 9.45873 15.2534 9.08528C15.0546 8.71184 14.7687 8.38902 14.4188 8.14271C14.0104 7.86306 13.5356 7.6895 13.0393 7.63843C12.9907 7.6323 12.9422 7.62819 12.8934 7.62406C12.8578 7.62105 12.8221 7.61803 12.7861 7.6142C12.7006 7.60511 12.6493 7.57028 12.6571 7.48548C12.6649 7.40068 12.7193 7.37039 12.8125 7.37645C14.1889 7.45822 15.3602 8.21692 15.7206 9.62981C15.7865 9.90225 15.8194 10.1813 15.8185 10.4612V10.5369C15.8185 10.6126 15.7688 10.6626 15.6927 10.6611C15.6758 10.6605 15.6592 10.6566 15.6439 10.6496C15.6286 10.6426 15.615 10.6326 15.6038 10.6203C15.5926 10.608 15.5841 10.5935 15.5788 10.5779C15.5735 10.5623 15.5715 10.5457 15.573 10.5293C15.5627 10.4704 15.5631 10.4104 15.5635 10.3391L15.5637 10.2931Z" fill="white"/>
<path d="M14.5786 9.79954C14.4341 9.01662 13.9074 8.6562 13.1524 8.60623C13.0918 8.60168 13.0266 8.61683 13.0126 8.6986C12.9986 8.78038 13.0592 8.83338 13.168 8.83338C13.2342 8.83763 13.3001 8.84572 13.3653 8.85761C13.6569 8.89528 13.9227 9.04053 14.1078 9.26346C14.284 9.5096 14.3788 9.8023 14.3797 10.1024C14.3828 10.1933 14.4139 10.2539 14.5055 10.2539C14.5972 10.2539 14.6158 10.1842 14.6158 10.1024C14.6085 10.0009 14.5961 9.89984 14.5786 9.79954Z" fill="white"/>
<path fill-rule="evenodd" clip-rule="evenodd" d="M7.59726 20.0532V19.0491C7.59968 19.0355 7.59919 19.0214 7.59582 19.008C7.59246 18.9945 7.58629 18.9818 7.5777 18.9707C7.5691 18.9597 7.55827 18.9504 7.54587 18.9436C7.53347 18.9368 7.51977 18.9325 7.5056 18.931C6.65469 18.6954 5.8693 18.2756 5.20797 17.7029C4.72612 17.2756 4.32493 16.7692 4.02265 16.2067C3.59659 15.3942 3.31304 14.5179 3.18376 13.6141C3.02358 12.4804 2.96795 11.335 3.01754 10.1917C3.02841 9.65861 3.05637 9.13161 3.11851 8.59855C3.21762 7.58559 3.47974 6.59416 3.89526 5.6607C4.40836 4.51296 5.33917 3.59103 6.50826 3.07266C7.30464 2.7174 8.14245 2.45805 9.00318 2.30033C9.84727 2.14448 10.7019 2.04882 11.5602 2.01412C12.334 1.98745 13.1086 1.99857 13.8812 2.04744C14.9869 2.09293 16.0827 2.27147 17.1435 2.57898C17.9301 2.79999 18.6783 3.13432 19.3635 3.57088C20.0311 4.01764 20.5711 4.62269 20.9325 5.32905C21.3575 6.15406 21.6463 7.03922 21.7885 7.95192C21.8808 8.4938 21.9415 9.04036 21.9703 9.58895C22.0106 10.2689 22.006 10.9519 21.9796 11.6288C21.9532 12.3057 21.8941 12.9629 21.8087 13.6262C21.7007 14.6218 21.3868 15.5856 20.8859 16.4596C20.234 17.5652 19.1896 18.4001 17.9498 18.8069C17.102 19.0963 16.2267 19.3022 15.3368 19.4217C14.6859 19.5095 14.0334 19.5731 13.3778 19.5989C12.8761 19.6216 12.3743 19.6155 11.8725 19.6079C11.6165 19.6079 11.3618 19.5858 11.1073 19.5638L11.0227 19.5565C10.995 19.5514 10.9663 19.5544 10.9403 19.5652C10.9143 19.576 10.8922 19.594 10.8767 19.617C10.305 20.2864 9.71158 20.9376 9.11348 21.5857C9.00453 21.7039 8.87839 21.806 8.73908 21.8886C8.64764 21.9471 8.54337 21.9838 8.43469 21.9957C8.32601 22.0077 8.21597 21.9945 8.11345 21.9574C8.01093 21.9203 7.91881 21.8601 7.84453 21.7819C7.77024 21.7036 7.71587 21.6095 7.68581 21.507C7.62661 21.3248 7.59725 21.1347 7.59881 20.9436C7.59726 20.6438 7.59726 20.3485 7.59726 20.0532ZM8.28857 21.3237L8.36158 21.2571L9.65876 19.8533C10.1579 19.3132 10.6566 18.7725 11.1548 18.2314C11.1793 18.1984 11.2123 18.1723 11.2505 18.1558C11.2887 18.1393 11.3307 18.133 11.3723 18.1375C11.5416 18.1542 11.7109 18.1602 11.8818 18.1617C12.4721 18.1617 13.0625 18.1617 13.6528 18.1208C14.1888 18.08 14.7232 18.0164 15.2545 17.9346C15.8265 17.8375 16.3928 17.7106 16.9509 17.5545C18.1937 17.2289 19.1553 16.5323 19.7596 15.4041C20.1164 14.7104 20.3402 13.9591 20.4199 13.1871C20.5143 12.4594 20.5708 11.7275 20.5892 10.9943C20.6167 10.0732 20.5522 9.15161 20.3966 8.24268C20.2886 7.58415 20.0944 6.94186 19.8187 6.33156C19.4676 5.57438 18.9704 4.94743 18.2046 4.54461C17.0301 3.92676 15.7594 3.65114 14.4498 3.51031C14.0785 3.47093 13.7072 3.44973 13.3343 3.4361C12.5709 3.39774 11.8059 3.40178 11.0429 3.44822C10.4942 3.48791 9.94849 3.55972 9.40864 3.66326C8.61473 3.80433 7.8467 4.05951 7.12966 4.42044C6.71396 4.62519 6.33682 4.89707 6.01424 5.22456C5.49144 5.79417 5.10794 6.47193 4.89261 7.20686C4.63716 8.06278 4.49772 8.94761 4.47783 9.83881C4.42784 10.73 4.43926 11.6235 4.512 12.5132C4.55726 13.0426 4.64821 13.5675 4.78387 14.0821C4.98571 14.884 5.37728 15.6287 5.92725 16.2567C6.521 16.8973 7.2884 17.3614 8.14098 17.5954C8.24818 17.6272 8.29634 17.6635 8.29634 17.7816C8.29012 18.0724 8.29219 18.3631 8.29426 18.6539C8.2953 18.7993 8.29634 18.9447 8.29634 19.09L8.28857 21.3237Z" fill="white"/>
</svg>
