<svg width="24" height="24" viewBox="0 0 24 24" fill="none" xmlns="http://www.w3.org/2000/svg">
<path d="M15.0806 12.9838C15.3256 13.0395 15.5546 13.1504 15.7501 13.3078C15.8071 13.3413 15.8694 13.3758 15.9345 13.412C16.309 13.6198 16.7773 13.8796 16.864 14.2787C16.9064 14.5078 16.8768 14.7444 16.7791 14.9561C16.613 15.3064 16.3632 15.6106 16.0516 15.8419C15.7401 16.0732 15.3764 16.2245 14.9925 16.2826C14.3187 16.3589 13.6368 16.2516 13.0192 15.9721C12.4247 15.7689 11.8556 15.498 11.323 15.1649C10.2619 14.5094 9.33824 13.6544 8.60348 12.6474C8.37739 12.3408 8.16789 12.0224 7.97588 11.6935C7.70975 11.2641 7.50785 10.7982 7.37656 10.3105C7.32486 10.1076 7.29828 9.89906 7.2974 9.68964C7.28443 9.31671 7.35541 8.94563 7.50513 8.60372C7.65484 8.26181 7.87947 7.95778 8.16246 7.71402C8.32548 7.56918 8.52699 7.47453 8.74269 7.44148C8.95838 7.40843 9.17905 7.43839 9.37807 7.52775C9.76394 7.85323 10.0484 8.28219 10.1979 8.76392C10.3913 9.10754 10.4815 9.49942 10.458 9.89285C10.3519 10.2495 10.1574 10.5737 9.89259 10.8355C9.81692 10.9001 9.76934 10.9916 9.75985 11.0905C9.75036 11.1895 9.7797 11.2883 9.8417 11.3661C10.5686 12.6129 11.6964 13.5776 13.0419 14.1037C13.1167 14.1447 13.204 14.157 13.2872 14.1382C13.3705 14.1195 13.4441 14.0711 13.4942 14.0021C13.5686 13.9119 13.6431 13.7933 13.7215 13.6684C13.8933 13.3949 14.0843 13.0907 14.3366 12.9861C14.5812 12.9288 14.8357 12.928 15.0806 12.9838Z" fill="white"/>
<path fill-rule="evenodd" clip-rule="evenodd" d="M3.43611 16.6692L2 22L7.39391 20.563C9.4923 21.6904 11.9282 22.0257 14.2547 21.5075C16.5811 20.9893 18.6421 19.6524 20.0593 17.742C21.4765 15.8316 22.155 13.4759 21.9702 11.1072C21.7854 8.73849 20.7497 6.51565 19.0532 4.84657C17.3567 3.17748 15.1132 2.17412 12.7343 2.0206C10.3554 1.86708 8.0008 2.57369 6.10249 4.01077C4.20417 5.44786 2.88951 7.51902 2.39973 9.84419C1.90996 12.1694 2.27792 14.5926 3.43611 16.6692ZM7.98758 18.7654L7.65399 18.5682L4.64041 19.3684L5.44328 16.3931L5.23408 16.0493C4.46744 14.8051 4.06228 13.3733 4.06371 11.9132C4.06108 10.1523 4.643 8.43996 5.71877 7.04306C6.79454 5.64617 8.30373 4.64318 10.0112 4.1904C11.7186 3.73762 13.5284 3.86047 15.1584 4.53982C16.7885 5.21917 18.1473 6.41685 19.0231 7.94623C19.8988 9.4756 20.2424 11.2508 20.0002 12.9951C19.7581 14.7394 18.9437 16.3548 17.6842 17.5897C16.4246 18.8246 14.7905 19.6095 13.0366 19.8222C11.2827 20.0349 9.50749 19.6633 7.98758 18.7654Z" fill="white"/>
</svg>
