<svg width="132" height="90" viewBox="0 0 132 90" fill="none" xmlns="http://www.w3.org/2000/svg">
<path fill-rule="evenodd" clip-rule="evenodd" d="M110.309 79.3121C119.327 79.3121 126.638 72.0014 126.638 62.9833C126.638 53.9651 119.327 46.6545 110.309 46.6545C101.996 46.6545 95.1343 52.8661 94.1116 60.9009C94.8423 60.5878 95.6472 60.4145 96.4925 60.4145C99.8346 60.4145 102.544 63.1238 102.544 66.4659V77.2643C102.544 77.2932 102.544 77.322 102.543 77.3509C104.853 78.6018 107.498 79.3121 110.309 79.3121Z" fill="#F9CA86"/>
<path fill-rule="evenodd" clip-rule="evenodd" d="M30.0696 37.204C29.8514 37.3339 29.6305 37.4598 29.407 37.5815V21.3809H12.2631V38.4754C5.06266 35.48 0 28.3774 0 20.0924C0 9.10103 8.91025 0.190784 19.9016 0.190784C30.8929 0.190784 39.8032 9.10103 39.8032 20.0924C39.8032 20.5252 39.7894 20.9549 39.7621 21.3809H30.0696V37.204Z" fill="#B8C09B"/>
<path d="M41.6226 17.3408C44.892 17.3408 47.4816 18.2957 49.3914 20.2055C51.3012 22.083 52.2561 24.9153 52.2561 28.7026V40.5258C52.2561 42.2018 50.8975 43.5605 49.2215 43.5605V43.5605C47.5454 43.5605 46.1868 42.2018 46.1868 40.5258V29.4795C46.1868 27.2136 45.685 25.5142 44.6815 24.3812C43.6781 23.2159 42.2376 22.6333 40.3601 22.6333C38.3208 22.6333 36.6861 23.313 35.4561 24.6726C34.226 25.9997 33.611 27.9096 33.611 30.4021V40.5258C33.611 42.2018 32.2523 43.5605 30.5763 43.5605V43.5605C28.9003 43.5605 27.5416 42.2018 27.5416 40.5258V29.4795C27.5416 27.2136 27.0399 25.5142 26.0364 24.3812C25.0329 23.2159 23.5924 22.6333 21.715 22.6333C19.6433 22.6333 17.9924 23.2968 16.7624 24.624C15.5647 25.9512 14.9658 27.8772 14.9658 30.4021V40.4233C14.9658 42.1559 13.5612 43.5605 11.8286 43.5605V43.5605C10.096 43.5605 8.69141 42.1559 8.69141 40.4233V20.6236C8.69141 18.9714 10.0308 17.6321 11.6829 17.6321V17.6321C13.3351 17.6321 14.6745 18.9714 14.6745 20.6236V20.9338C15.6456 19.7685 16.8595 18.8783 18.3161 18.2633C19.7728 17.6483 21.3913 17.3408 23.1716 17.3408C25.1138 17.3408 26.8295 17.713 28.3185 18.4575C29.8399 19.1697 31.0376 20.2379 31.9116 21.6622C32.9798 20.3026 34.3555 19.2506 36.0387 18.5061C37.722 17.7292 39.5833 17.3408 41.6226 17.3408Z" fill="#161105"/>
<path d="M106.774 17.3408C110.043 17.3408 112.633 18.2957 114.542 20.2055C116.452 22.083 117.407 24.9153 117.407 28.7026V40.5258C117.407 42.2018 116.049 43.5605 114.373 43.5605V43.5605C112.697 43.5605 111.338 42.2018 111.338 40.5258V29.4795C111.338 27.2136 110.836 25.5142 109.833 24.3812C108.829 23.2159 107.389 22.6333 105.511 22.6333C103.472 22.6333 101.837 23.313 100.607 24.6726C99.3771 25.9997 98.7621 27.9096 98.7621 30.4021V40.5258C98.7621 42.2018 97.4034 43.5605 95.7274 43.5605V43.5605C94.0514 43.5605 92.6927 42.2018 92.6927 40.5258V29.4795C92.6927 27.2136 92.191 25.5142 91.1875 24.3812C90.184 23.2159 88.7435 22.6333 86.8661 22.6333C84.7944 22.6333 83.1435 23.2968 81.9134 24.624C80.7158 25.9512 80.1169 27.8772 80.1169 30.4021V40.5774C80.1169 42.2249 78.7813 43.5605 77.1338 43.5605V43.5605C75.4862 43.5605 74.1507 42.2249 74.1507 40.5774V20.4695C74.1507 18.9025 75.421 17.6321 76.9881 17.6321V17.6321C78.5552 17.6321 79.8256 18.9025 79.8256 20.4695V20.9338C80.7967 19.7685 82.0106 18.8783 83.4672 18.2633C84.9239 17.6483 86.5424 17.3408 88.3227 17.3408C90.2649 17.3408 91.9805 17.713 93.4696 18.4575C94.991 19.1697 96.1887 20.2379 97.0626 21.6622C98.1309 20.3026 99.5066 19.2506 101.19 18.5061C102.873 17.7292 104.734 17.3408 106.774 17.3408Z" fill="#161105"/>
<path d="M125.163 20.6668C125.163 18.9908 126.522 17.6321 128.198 17.6321V17.6321C129.874 17.6321 131.233 18.9908 131.233 20.6668V40.5258C131.233 42.2018 129.874 43.5605 128.198 43.5605V43.5605C126.522 43.5605 125.163 42.2018 125.163 40.5258V20.6668Z" fill="#161105"/>
<path d="M60.012 20.6668C60.012 18.9908 61.3706 17.6321 63.0467 17.6321V17.6321C64.7227 17.6321 66.0814 18.9908 66.0814 20.6668V40.5258C66.0814 42.2019 64.7227 43.5605 63.0467 43.5605V43.5605C61.3706 43.5605 60.012 42.2019 60.012 40.5258V20.6668Z" fill="#161105"/>
<path d="M60.3816 13.6112C61.1055 14.3162 62.0024 14.6687 63.0724 14.6687C64.1739 14.6687 65.0708 14.2994 65.7631 13.5609C66.487 12.7888 66.8489 11.8489 66.8489 10.7411C66.8489 9.70046 66.487 8.84446 65.7631 8.17308C65.0393 7.46813 64.1424 7.11566 63.0724 7.11566C62.0024 7.11566 61.1055 7.48492 60.3816 8.22343C59.6578 8.92838 59.2959 9.81795 59.2959 10.8922C59.2959 11.9664 59.6578 12.8727 60.3816 13.6112Z" fill="#EDA884"/>
<path d="M125.533 13.6112C126.257 14.3162 127.154 14.6687 128.224 14.6687C129.325 14.6687 130.222 14.2994 130.914 13.5609C131.638 12.7888 132 11.8489 132 10.7411C132 9.70046 131.638 8.84446 130.914 8.17308C130.19 7.46813 129.294 7.11566 128.224 7.11566C127.154 7.11566 126.257 7.48492 125.533 8.22343C124.809 8.92838 124.447 9.81795 124.447 10.8922C124.447 11.9664 124.809 12.8727 125.533 13.6112Z" fill="#EDA884"/>
<path d="M83.8873 52.3794C81.3301 52.3794 80.0827 53.7713 80.0827 56.5551V58.1089H85.6589C86.9997 58.1089 88.0866 59.1958 88.0866 60.5367V60.5367C88.0866 61.8775 86.9997 62.9644 85.6589 62.9644H80.1335V80.8645C80.1335 82.5095 78.7999 83.8431 77.1549 83.8431V83.8431C75.5099 83.8431 74.1763 82.5095 74.1763 80.8645V62.9644H70.4563C69.1155 62.9644 68.0286 61.8775 68.0286 60.5367V60.5367C68.0286 59.1958 69.1155 58.1089 70.4563 58.1089H74.1763V56.458C74.1763 53.6742 74.9856 51.4892 76.6041 49.9031C78.2226 48.2846 80.5047 47.4753 83.4503 47.4753C84.831 47.4753 86.5633 47.7967 88.0221 48.2538C89.5168 48.7222 90.0606 50.3519 89.5141 51.8198V51.8198C89.1219 52.873 87.7957 53.3427 86.7305 52.9844C85.6897 52.6344 84.5624 52.3794 83.8873 52.3794Z" fill="#161105"/>
<path fill-rule="evenodd" clip-rule="evenodd" d="M38.4606 82.6901C41.1295 84.0899 44.127 84.7898 47.4529 84.7898C50.8199 84.7898 53.8379 84.0899 56.5068 82.6901C59.1758 81.2903 61.2494 79.3506 62.7276 76.8709C64.2468 74.3513 65.0065 71.5117 65.0065 68.3521C65.0065 65.1926 64.2468 62.373 62.7276 59.8934C61.2494 57.4137 59.1758 55.474 56.5068 54.0742C53.8379 52.6744 50.8199 51.9745 47.4529 51.9745C44.127 51.9745 41.1295 52.6744 38.4606 54.0742C35.7916 55.474 33.6975 57.4137 32.1782 59.8934C30.7 62.373 29.9609 65.1926 29.9609 68.3521C29.9609 71.5117 30.7 74.3513 32.1782 76.8709C33.6975 79.3506 35.7916 81.2903 38.4606 82.6901ZM55.5868 76.7464C53.445 78.8663 50.732 79.9263 47.4479 79.9263C44.1638 79.9263 41.4508 78.8663 39.309 76.7464C37.2148 74.6266 36.1677 71.8385 36.1677 68.3821C36.1677 64.9258 37.2148 62.1377 39.309 60.0178C41.4508 57.8979 44.1638 56.838 47.4479 56.838C50.732 56.838 53.445 57.8979 55.5868 60.0178C57.7286 62.1377 58.7995 64.9258 58.7995 68.3821C58.7995 71.8385 57.7286 74.6266 55.5868 76.7464Z" fill="#161105"/>
<path fill-rule="evenodd" clip-rule="evenodd" d="M92.4492 60.5601C92.4492 59.2218 93.6855 58.1368 95.2104 58.1368H108.552C110.077 58.1368 111.313 59.2218 111.313 60.5601C111.313 61.8984 110.077 62.9834 108.552 62.9834H95.2104C93.6855 62.9834 92.4492 61.8984 92.4492 60.5601Z" fill="#161105"/>
<path d="M104.516 55.1889C104.516 53.5203 103.164 52.1677 101.495 52.1677C99.8267 52.1677 98.7419 53.5203 98.7419 55.1889V75.3167C98.7419 80.2225 102.719 84.1995 107.625 84.1995C110.862 84.1995 113.695 82.584 115.247 80.0713C116.454 78.1175 114.456 76.156 112.17 76.3814L111.925 76.4056C111.054 76.4914 110.397 77.2528 109.748 77.8395C109.149 78.3808 108.249 78.6576 107.357 78.6576C105.788 78.6576 104.516 77.133 104.516 75.5642V55.1889Z" fill="#161105"/>
<path d="M11.5705 70.7927C11.5705 64.6886 11.5705 60.2641 11.5705 54.7133C11.5705 50.4928 13.4261 47.8672 15.7739 46.5167C20.0453 44.0598 25.5688 49.1053 23.5354 53.5939C22.041 56.8927 17.4536 60.5127 6.41431 66.5733" stroke="#161105" stroke-width="5.66474" stroke-linecap="round"/>
<path d="M14.4438 55.189C14.4438 53.5205 13.0911 66.2637 11.4225 66.2637C9.75397 66.2637 8.66919 67.6163 8.66919 69.2849L8.66926 75.3169C8.66926 80.2227 12.6462 84.1997 17.5521 84.1997C20.7893 84.1997 23.6221 82.5841 25.1746 80.0714C26.3817 78.1176 24.3833 76.1561 22.0978 76.3815L21.8521 76.4057C20.9814 76.4916 20.3241 77.253 19.675 77.8396C19.076 78.381 18.1766 78.6577 17.2842 78.6577C15.7155 78.6577 14.4438 77.1331 14.4438 75.5644V55.189Z" fill="#161105"/>
</svg>
